<mxfile>
    <diagram id="ss4kliPlDx3g5UHBLqbX" name="Page-1">
        <mxGraphModel dx="2852" dy="873" grid="1" gridSize="10" guides="1" tooltips="1" connect="1" arrows="1" fold="1" page="1" pageScale="1" pageWidth="850" pageHeight="1100" math="1" shadow="0">
            <root>
                <mxCell id="0"/>
                <mxCell id="1" parent="0"/>
                <mxCell id="6" value="" style="edgeStyle=orthogonalEdgeStyle;rounded=0;orthogonalLoop=1;jettySize=auto;html=1;" parent="1" source="2" target="5" edge="1">
                    <mxGeometry relative="1" as="geometry"/>
                </mxCell>
                <mxCell id="17" value="" style="edgeStyle=orthogonalEdgeStyle;rounded=0;orthogonalLoop=1;jettySize=auto;html=1;" parent="1" source="2" target="5" edge="1">
                    <mxGeometry relative="1" as="geometry"/>
                </mxCell>
                <mxCell id="2" value="&lt;b&gt;PPP predict&lt;br&gt;&lt;/b&gt;&lt;br&gt;$$\omega = \omega \cdot P_S$$ or $$\text{log_weight} =&amp;nbsp; \text{log_weight} + P_S$$" style="rounded=1;whiteSpace=wrap;html=1;verticalAlign=top;" parent="1" vertex="1">
                    <mxGeometry x="40" y="270" width="280" height="130" as="geometry"/>
                </mxCell>
                <mxCell id="3" value="" style="endArrow=none;dashed=1;html=1;dashPattern=1 3;strokeWidth=2;" parent="1" edge="1">
                    <mxGeometry width="50" height="50" relative="1" as="geometry">
                        <mxPoint x="50" y="240" as="sourcePoint"/>
                        <mxPoint x="700" y="240" as="targetPoint"/>
                    </mxGeometry>
                </mxCell>
                <mxCell id="4" value="prediction step" style="edgeLabel;html=1;align=center;verticalAlign=middle;resizable=0;points=[];" parent="3" vertex="1" connectable="0">
                    <mxGeometry x="-0.8338" y="-1" relative="1" as="geometry">
                        <mxPoint as="offset"/>
                    </mxGeometry>
                </mxCell>
                <mxCell id="5" value="&lt;b&gt;PPP birth process&lt;/b&gt;" style="whiteSpace=wrap;html=1;rounded=1;verticalAlign=top;" parent="1" vertex="1">
                    <mxGeometry x="120" y="430" width="120" height="60" as="geometry"/>
                </mxCell>
                <mxCell id="7" value="&lt;b&gt;MBM predict&lt;/b&gt;" style="rounded=1;whiteSpace=wrap;html=1;verticalAlign=top;" parent="1" vertex="1">
                    <mxGeometry x="425" y="270" width="240" height="80" as="geometry"/>
                </mxCell>
                <mxCell id="8" value="" style="endArrow=none;dashed=1;html=1;dashPattern=1 3;strokeWidth=2;" parent="1" edge="1">
                    <mxGeometry width="50" height="50" relative="1" as="geometry">
                        <mxPoint x="50" y="520" as="sourcePoint"/>
                        <mxPoint x="700" y="520" as="targetPoint"/>
                    </mxGeometry>
                </mxCell>
                <mxCell id="9" value="update step" style="edgeLabel;html=1;align=center;verticalAlign=middle;resizable=0;points=[];" parent="8" vertex="1" connectable="0">
                    <mxGeometry x="-0.8338" y="-1" relative="1" as="geometry">
                        <mxPoint as="offset"/>
                    </mxGeometry>
                </mxCell>
                <mxCell id="10" value="" style="endArrow=none;dashed=1;html=1;dashPattern=1 3;strokeWidth=2;" parent="1" edge="1">
                    <mxGeometry width="50" height="50" relative="1" as="geometry">
                        <mxPoint x="80" y="1040" as="sourcePoint"/>
                        <mxPoint x="730" y="1040" as="targetPoint"/>
                    </mxGeometry>
                </mxCell>
                <mxCell id="11" value="estimate step" style="edgeLabel;html=1;align=center;verticalAlign=middle;resizable=0;points=[];" parent="10" vertex="1" connectable="0">
                    <mxGeometry x="-0.8338" y="-1" relative="1" as="geometry">
                        <mxPoint as="offset"/>
                    </mxGeometry>
                </mxCell>
                <mxCell id="12" value="" style="endArrow=none;dashed=1;html=1;dashPattern=1 3;strokeWidth=2;" parent="1" edge="1">
                    <mxGeometry width="50" height="50" relative="1" as="geometry">
                        <mxPoint x="80" y="1160" as="sourcePoint"/>
                        <mxPoint x="730" y="1160" as="targetPoint"/>
                    </mxGeometry>
                </mxCell>
                <mxCell id="13" value="reduction step" style="edgeLabel;html=1;align=center;verticalAlign=middle;resizable=0;points=[];" parent="12" vertex="1" connectable="0">
                    <mxGeometry x="-0.8338" y="-1" relative="1" as="geometry">
                        <mxPoint as="offset"/>
                    </mxGeometry>
                </mxCell>
                <mxCell id="14" value="$$P_S - \text{probability of object survival}$$&lt;br&gt;$$P_D - \text{probability of object detection}$$" style="text;strokeColor=none;fillColor=none;align=left;verticalAlign=top;rounded=0;fontStyle=0;horizontal=1;html=1;" parent="1" vertex="1">
                    <mxGeometry x="50" y="50" width="750" height="130" as="geometry"/>
                </mxCell>
                <mxCell id="15" value="&lt;b&gt;objects from&lt;/b&gt;&lt;b&gt;&amp;nbsp;PPP detected for the first time&lt;/b&gt;&lt;br&gt;&lt;br&gt;&lt;div style=&quot;text-align: left&quot;&gt;&lt;span&gt;&lt;i&gt;Creates new bernoulli which represents detection from new object and detection from clutter simultaneously:&lt;/i&gt;&lt;/span&gt;&lt;/div&gt;&lt;div style=&quot;text-align: left&quot;&gt;&lt;br&gt;&lt;/div&gt;&lt;div style=&quot;text-align: left&quot;&gt;&lt;i&gt;1) preform ellipsoidal gaing&lt;/i&gt;&lt;/div&gt;&lt;div style=&quot;text-align: left&quot;&gt;&lt;i&gt;2) baessian update&lt;/i&gt;&lt;/div&gt;&lt;div style=&quot;text-align: left&quot;&gt;&lt;i&gt;3) create bernoulli&lt;/i&gt;&lt;/div&gt;&lt;div style=&quot;text-align: left&quot;&gt;&lt;span&gt;&lt;i&gt;&lt;br&gt;&lt;/i&gt;&lt;/span&gt;&lt;/div&gt;&lt;div style=&quot;text-align: left&quot;&gt;&lt;br&gt;&lt;/div&gt;&lt;div style=&quot;text-align: left&quot;&gt;&lt;i&gt;&lt;br&gt;&lt;/i&gt;&lt;/div&gt;&lt;div style=&quot;text-align: left&quot;&gt;&lt;i&gt;$$likelihood = \sum_i^\text{ppp} \cdot P_D \cdot \omega_i \cdot \text{likelihood} (z, ppp_i) $$&lt;/i&gt;&lt;/div&gt;&lt;div style=&quot;text-align: left&quot;&gt;&lt;i&gt;&lt;br&gt;&lt;/i&gt;&lt;/div&gt;&lt;div style=&quot;text-align: left&quot;&gt;&lt;br&gt;&lt;/div&gt;&lt;div style=&quot;text-align: left&quot;&gt;&lt;i&gt;$$ \lambda _c $$&lt;/i&gt;&lt;/div&gt;&lt;br&gt;&lt;div style=&quot;text-align: left&quot;&gt;&lt;span&gt;$$ r =&amp;nbsp; \frac{\rho_u}{\lambda_c + \rho_u} $$&lt;/span&gt;&lt;/div&gt;" style="whiteSpace=wrap;html=1;rounded=0;verticalAlign=top;spacingLeft=10;" parent="1" vertex="1">
                    <mxGeometry x="665" y="540" width="330" height="390" as="geometry"/>
                </mxCell>
                <mxCell id="16" value="&lt;b&gt;PPP undetected update&lt;br&gt;&lt;ul&gt;&lt;li&gt;&lt;b&gt;&lt;i&gt;undetected objects missdetected again&lt;/i&gt;&lt;/b&gt;&lt;/li&gt;&lt;/ul&gt;&lt;/b&gt;$$ \text{log_weight} = \text{log_weight} + log(1 - P_D)$$" style="whiteSpace=wrap;html=1;rounded=1;verticalAlign=top;" parent="1" vertex="1">
                    <mxGeometry x="1030" y="530" width="290" height="140" as="geometry"/>
                </mxCell>
                <mxCell id="19" style="edgeStyle=orthogonalEdgeStyle;rounded=0;orthogonalLoop=1;jettySize=auto;html=1;exitX=0.5;exitY=1;exitDx=0;exitDy=0;" parent="1" source="15" target="15" edge="1">
                    <mxGeometry relative="1" as="geometry"/>
                </mxCell>
                <mxCell id="23" value="Track n" style="ellipse;whiteSpace=wrap;html=1;" vertex="1" parent="1">
                    <mxGeometry x="330" y="590" width="120" height="30" as="geometry"/>
                </mxCell>
                <mxCell id="31" value="Single&lt;br&gt;target&lt;br&gt;hypothesis" style="ellipse;whiteSpace=wrap;html=1;aspect=fixed;" vertex="1" parent="1">
                    <mxGeometry x="255" y="650" width="80" height="80" as="geometry"/>
                </mxCell>
                <mxCell id="32" value="" style="endArrow=classic;html=1;entryX=0;entryY=0;entryDx=0;entryDy=0;" edge="1" parent="1" target="31">
                    <mxGeometry width="50" height="50" relative="1" as="geometry">
                        <mxPoint x="160" y="620" as="sourcePoint"/>
                        <mxPoint x="184.39403863265352" y="663.1699311730624" as="targetPoint"/>
                    </mxGeometry>
                </mxCell>
                <mxCell id="36" value="assiciation hypotheses if parrent STH and input mesurements" style="shape=hexagon;perimeter=hexagonPerimeter2;whiteSpace=wrap;html=1;fixedSize=1;size=20;" vertex="1" parent="1">
                    <mxGeometry x="50" y="825" width="120" height="70" as="geometry"/>
                </mxCell>
                <mxCell id="37" value="assiciation hypotheses if parrent STH and input mesurements" style="shape=hexagon;perimeter=hexagonPerimeter2;whiteSpace=wrap;html=1;fixedSize=1;size=20;" vertex="1" parent="1">
                    <mxGeometry x="190" y="820" width="120" height="80" as="geometry"/>
                </mxCell>
                <mxCell id="39" value="" style="endArrow=classic;html=1;entryX=0.5;entryY=0;entryDx=0;entryDy=0;" edge="1" parent="1" target="37">
                    <mxGeometry width="50" height="50" relative="1" as="geometry">
                        <mxPoint x="90" y="730" as="sourcePoint"/>
                        <mxPoint x="120" y="835" as="targetPoint"/>
                    </mxGeometry>
                </mxCell>
                <mxCell id="90" style="edgeStyle=orthogonalEdgeStyle;rounded=0;orthogonalLoop=1;jettySize=auto;html=1;" edge="1" parent="1">
                    <mxGeometry relative="1" as="geometry">
                        <mxPoint x="570" y="807.5" as="sourcePoint"/>
                        <mxPoint x="570" y="827.5" as="targetPoint"/>
                    </mxGeometry>
                </mxCell>
                <mxCell id="87" value="MBM update step" style="swimlane;" vertex="1" parent="1">
                    <mxGeometry x="-960" y="600" width="830" height="440" as="geometry">
                        <mxRectangle x="-610" y="718" width="90" height="23" as="alternateBounds"/>
                    </mxGeometry>
                </mxCell>
                <mxCell id="22" value="Track 1" style="ellipse;whiteSpace=wrap;html=1;" vertex="1" parent="87">
                    <mxGeometry x="140" y="50" width="120" height="30" as="geometry"/>
                </mxCell>
                <mxCell id="93" value="Track 2" style="ellipse;whiteSpace=wrap;html=1;" vertex="1" parent="87">
                    <mxGeometry x="470" y="50" width="120" height="30" as="geometry"/>
                </mxCell>
                <mxCell id="94" value="Track N" style="ellipse;whiteSpace=wrap;html=1;" vertex="1" parent="87">
                    <mxGeometry x="690" y="50" width="120" height="30" as="geometry"/>
                </mxCell>
                <mxCell id="28" value="" style="endArrow=classic;html=1;exitX=0.5;exitY=1;exitDx=0;exitDy=0;entryX=0.5;entryY=0;entryDx=0;entryDy=0;" edge="1" parent="87" source="22" target="95">
                    <mxGeometry width="50" height="50" relative="1" as="geometry">
                        <mxPoint x="1410" y="40" as="sourcePoint"/>
                        <mxPoint x="73" y="160" as="targetPoint"/>
                    </mxGeometry>
                </mxCell>
                <mxCell id="95" value="Single target hypo 1" style="rounded=1;whiteSpace=wrap;html=1;" vertex="1" parent="87">
                    <mxGeometry x="70" y="110" width="120" height="56" as="geometry"/>
                </mxCell>
                <mxCell id="96" value="Single target hypo 2" style="rounded=1;whiteSpace=wrap;html=1;" vertex="1" parent="87">
                    <mxGeometry x="240" y="110" width="120" height="56" as="geometry"/>
                </mxCell>
                <mxCell id="98" value="" style="endArrow=classic;html=1;exitX=0.5;exitY=1;exitDx=0;exitDy=0;entryX=0.5;entryY=0;entryDx=0;entryDy=0;" edge="1" parent="87" source="22" target="96">
                    <mxGeometry width="50" height="50" relative="1" as="geometry">
                        <mxPoint x="130" y="90" as="sourcePoint"/>
                        <mxPoint x="83" y="170" as="targetPoint"/>
                    </mxGeometry>
                </mxCell>
                <mxCell id="102" value="new missdetection hypothesis" style="swimlane;" vertex="1" parent="87">
                    <mxGeometry x="10" y="230" width="200" height="170" as="geometry"/>
                </mxCell>
                <mxCell id="105" value="new hypothesis of association&#10;parent sth with input measurement z_i" style="swimlane;startSize=60;" vertex="1" parent="87">
                    <mxGeometry x="240" y="200" width="250" height="200" as="geometry"/>
                </mxCell>
                <mxCell id="103" value="$$ P_{MD} = 1 - P_{D}$$&lt;br&gt;&lt;div style=&quot;text-align: left&quot;&gt;&lt;span&gt;new bernoulli&lt;/span&gt;&lt;/div&gt;&lt;div style=&quot;text-align: left&quot;&gt;&lt;span&gt;$$r = \frac{r \cdot P_{MD}}{1 - r + r \cdot P_{MD}}$$&lt;/span&gt;&lt;/div&gt;&lt;div style=&quot;text-align: left&quot;&gt;&lt;span&gt;&lt;br&gt;&lt;/span&gt;&lt;/div&gt;&lt;div style=&quot;text-align: left&quot;&gt;&lt;span&gt;&lt;br&gt;&lt;/span&gt;&lt;/div&gt;&lt;div style=&quot;text-align: left&quot;&gt;&lt;br&gt;&lt;/div&gt;" style="text;html=1;align=center;verticalAlign=middle;resizable=0;points=[];autosize=1;" vertex="1" parent="1">
                    <mxGeometry x="-995" y="865" width="290" height="90" as="geometry"/>
                </mxCell>
            </root>
        </mxGraphModel>
    </diagram>
</mxfile>